<?xml version="1.0" encoding="UTF-8"?>
<svg version="1.1" xmlns="http://www.w3.org/2000/svg" width="447" height="470">
<path d="M0 0 C147.51 0 295.02 0 447 0 C447 155.1 447 310.2 447 470 C299.49 470 151.98 470 0 470 C0 314.9 0 159.8 0 0 Z " fill="#027CBE" transform="translate(0,0)"/>
<path d="M0 0 C15.68228009 -0.07031358 31.36451709 -0.12309702 47.04691601 -0.15543652 C54.32975241 -0.17085641 61.61249044 -0.19185166 68.89526367 -0.22631836 C75.24845285 -0.25637115 81.60157074 -0.27561038 87.95482904 -0.28226548 C91.31388822 -0.28615114 94.67258316 -0.29679215 98.03160667 -0.31719017 C101.7961752 -0.33913104 105.56032848 -0.34195993 109.32495117 -0.34057617 C110.96602844 -0.35675491 110.96602844 -0.35675491 112.64025879 -0.3732605 C141.96137434 -0.25748075 166.47495437 15.35586095 187.44140625 34.359375 C190.06102569 37.06298224 191.92880915 39.86655484 194 43 C194.81339844 43.78761719 195.62679687 44.57523438 196.46484375 45.38671875 C199.55631693 48.57346075 201.46826999 51.92739268 203.5625 55.8125 C203.93568359 56.48603516 204.30886719 57.15957031 204.69335938 57.85351562 C205.81522283 59.89238051 206.90971808 61.94410303 208 64 C208.35336426 64.64332275 208.70672852 65.28664551 209.07080078 65.94946289 C220.84545114 88.1290367 219.83074008 118.57878547 213.0625 142.125 C211.84687587 146.07208724 210.48807871 148.74535918 208 152 C206.91795694 154.58974276 205.99281632 157.20794356 205.0625 159.85546875 C204.711875 160.56316406 204.36125 161.27085937 204 162 C203.01 162.33 202.02 162.66 201 163 C199.99083967 164.76591887 199.99083967 164.76591887 199 167 C194.63242751 174.16281888 189.15385563 182.46821433 182 187 C181.34 187 180.68 187 180 187 C179.835 187.680625 179.67 188.36125 179.5 189.0625 C173.60764844 200.60168847 157.35060565 205.80884526 146.015625 210.40625 C144 211 144 211 140 211 C140 211.66 140 212.32 140 213 C119.55282956 217.93098966 100.41283083 218 79 218 C79 187.97 79 157.94 79 127 C93.85 127 108.7 127 124 127 C124 141.85 124 156.7 124 172 C137.38850551 167.53716483 149.25389066 160.4846711 158.15234375 149.29296875 C160 147 160 147 162 146 C163.02479005 143.7920741 163.02479005 143.7920741 163.9375 141.1875 C165.24037594 137.61645946 166.72515838 135.02264867 169 132 C169.72045367 128.84881675 169.72045367 128.84881675 170 126 C170.66 126 171.32 126 172 126 C173.11423309 95.53750415 173.11423309 95.53750415 159.3203125 68.953125 C158 67 158 67 158 64 C157.44957031 63.92394531 156.89914062 63.84789062 156.33203125 63.76953125 C153.14770169 62.71875583 151.21816847 60.87454164 148.6875 58.6875 C144.60936105 55.25442861 140.7383049 52.42180028 136 50 C136 49.34 136 48.68 136 48 C134.25014646 47.52029877 132.50011109 47.04126076 130.75 46.5625 C129.77546875 46.29566406 128.8009375 46.02882812 127.796875 45.75390625 C126.87390625 45.50511719 125.9509375 45.25632813 125 45 C124.4355719 44.82179214 123.8711438 44.64358429 123.28961182 44.4599762 C120.05410818 43.80997315 116.85463694 43.86951068 113.56933594 43.88647461 C112.82748047 43.88632858 112.085625 43.88618256 111.32128906 43.8860321 C108.87562103 43.88672731 106.43002969 43.89450134 103.984375 43.90234375 C102.28615358 43.90420932 100.58793162 43.90563257 98.88970947 43.90663147 C94.42466745 43.91044568 89.95965806 43.92026661 85.49462891 43.93133545 C80.93652793 43.94157313 76.37842167 43.94613414 71.8203125 43.95117188 C62.88019401 43.96188986 53.94009972 43.97895313 45 44 C45.0077306 45.13174904 45.0077306 45.13174904 45.01561737 46.28636169 C45.18312964 70.85753553 45.34410518 95.42874973 45.5 120 C45.50594854 120.93634136 45.51189708 121.87268271 45.51802588 122.83739805 C45.83205572 172.32924984 46.10122694 221.819473 46.0625 271.3125 C46.06121597 272.96605499 46.06121597 272.96605499 46.05990601 274.65301514 C46.04918512 287.43537498 46.02651328 300.21765309 46 313 C31.15 313 16.3 313 1 313 C-0.04941429 250.02922699 -0.12610908 187.06887754 -0.07202661 124.09048212 C-0.06403147 114.60565062 -0.05859537 105.12082046 -0.05493164 95.63598633 C-0.05466892 94.95778452 -0.05440619 94.27958271 -0.05413551 93.58082933 C-0.05282948 90.17493679 -0.05156601 86.76904423 -0.05032361 83.36315167 C-0.04013316 55.5754291 -0.02260467 27.78771505 0 0 Z " fill="#FDFEFE" transform="translate(118,79)"/>
<path d="M0 0 C1.09796402 -0.00274933 2.19592804 -0.00549866 3.3271637 -0.0083313 C4.53197388 -0.00114075 5.73678406 0.0060498 6.97810364 0.01345825 C8.24650589 0.0131662 9.51490814 0.01287415 10.82174683 0.01257324 C14.30085359 0.0119988 17.77982278 0.02376782 21.25889754 0.03772116 C24.89440322 0.05021332 28.52991196 0.05139782 32.16543579 0.05377197 C39.05023038 0.0599912 45.93496155 0.07640799 52.8197282 0.09647095 C60.65760828 0.11881619 68.49549136 0.12981992 76.33339536 0.13986182 C92.45694529 0.16077385 108.58043141 0.1959584 124.70393372 0.24050903 C124.70393372 0.90050903 124.70393372 1.56050903 124.70393372 2.24050903 C125.65268372 2.38488403 126.60143372 2.52925903 127.57893372 2.67800903 C130.70393372 3.24050903 130.70393372 3.24050903 132.70393372 4.24050903 C134.02393372 4.24050903 135.34393372 4.24050903 136.70393372 4.24050903 C140.70393372 4.24050903 140.70393372 4.24050903 142.70393372 5.24050903 C142.70393372 5.90050903 142.70393372 6.56050903 142.70393372 7.24050903 C144.03424622 7.36425903 144.03424622 7.36425903 145.39143372 7.49050903 C148.70393372 8.24050903 148.70393372 8.24050903 151.07893372 10.24050903 C154.66097574 12.96968391 157.25528178 12.93890551 161.70393372 13.24050903 C162.03393372 14.23050903 162.36393372 15.22050903 162.70393372 16.24050903 C164.79621561 18.06181095 164.79621561 18.06181095 167.26643372 19.80300903 C168.78095515 20.90168683 170.27011285 22.03841679 171.70393372 23.24050903 C171.70393372 23.90050903 171.70393372 24.56050903 171.70393372 25.24050903 C172.78674622 25.30238403 172.78674622 25.30238403 173.89143372 25.36550903 C177.81053898 26.58478623 179.20109025 29.07902255 181.70393372 32.24050903 C182.69393372 32.57050903 183.68393372 32.90050903 184.70393372 33.24050903 C185.03393372 35.22050903 185.36393372 37.20050903 185.70393372 39.24050903 C186.36393372 39.24050903 187.02393372 39.24050903 187.70393372 39.24050903 C187.70393372 39.90050903 187.70393372 40.56050903 187.70393372 41.24050903 C188.69393372 41.57050903 189.68393372 41.90050903 190.70393372 42.24050903 C190.70393372 43.23050903 190.70393372 44.22050903 190.70393372 45.24050903 C191.36393372 45.24050903 192.02393372 45.24050903 192.70393372 45.24050903 C193.68049622 47.03087362 194.65705872 48.8212382 195.63362122 50.61160278 C196.61803396 52.40669219 196.61803396 52.40669219 198.70393372 53.24050903 C199.43087276 55.21939864 200.10209623 57.22005461 200.70393372 59.24050903 C201.36393372 59.24050903 202.02393372 59.24050903 202.70393372 59.24050903 C206.50736605 64.31175214 207.70393372 70.01634679 207.70393372 76.24050903 C208.33041809 76.44933716 208.95690247 76.65816528 209.60237122 76.87332153 C211.70393372 78.24050903 211.70393372 78.24050903 212.68049622 80.85769653 C212.89448059 81.93277466 213.10846497 83.00785278 213.32893372 84.11550903 C213.65764465 85.68945435 213.65764465 85.68945435 213.99299622 87.29519653 C214.23028362 88.61024512 214.46721849 89.92535733 214.70393372 91.24050903 C214.88109924 92.11852173 215.05826477 92.99653442 215.24079895 93.90115356 C216.67831771 101.49991404 216.87518595 108.65460649 216.51643372 116.36550903 C216.48485168 117.46765747 216.45326965 118.56980591 216.42073059 119.70535278 C215.94180482 131.40779983 212.63700146 141.9651861 206.45393372 151.92800903 C204.45271767 155.06764797 204.45271767 155.06764797 204.76643372 158.30300903 C204.67255409 162.71535158 202.82168789 164.19526077 199.70393372 167.24050903 C198.71393372 167.24050903 197.72393372 167.24050903 196.70393372 167.24050903 C198.02068854 162.61580917 199.38915964 158.46601602 202.14143372 154.49050903 C213.77743221 136.75612579 213.0585723 107.72373569 209.52058411 87.66799927 C206.45510461 73.18324545 199.83565869 56.36025901 188.70393372 46.24050903 C187.63659637 44.86420561 186.59351969 43.46864862 185.57893372 42.05300903 C173.24165144 25.97715637 155.37111652 15.10224851 136.51643372 8.42800903 C135.28775574 7.99282959 135.28775574 7.99282959 134.03425598 7.54885864 C124.13069544 4.18281937 114.81975356 2.94209387 104.36946106 2.92166138 C103.17806519 2.91161575 101.98666931 2.90157013 100.75917053 2.89122009 C97.5243203 2.86580432 94.28956439 2.84884279 91.05464506 2.83579206 C87.66202648 2.8200554 84.26949427 2.79329939 80.87693787 2.76776123 C74.46701359 2.72115849 68.05707272 2.68432547 61.64706671 2.65108836 C54.34341345 2.61273538 47.03984735 2.5633602 39.73626781 2.5131042 C24.72555436 2.41005994 9.71478791 2.32071101 -5.29606628 2.24050903 C-5.29091255 3.37366075 -5.28575882 4.50681246 -5.28044891 5.6743021 C-5.15627088 32.99519241 -5.03400468 60.31609079 -4.91388401 87.63699925 C-4.89887593 91.05016468 -4.88385275 94.46333004 -4.86882019 97.87649536 C-4.86582958 98.55557669 -4.86283896 99.23465803 -4.85975772 99.93431758 C-4.81514086 110.05795118 -4.76951077 120.18157979 -4.72331238 130.3052063 C-4.44234231 191.95069553 -4.21267455 253.59432439 -4.29606628 315.24050903 C10.55393372 315.24050903 25.40393372 315.24050903 40.70393372 315.24050903 C40.59565247 306.85064575 40.59565247 306.85064575 40.48518372 298.29129028 C40.38591699 290.04525562 40.29338273 281.79915576 40.20393372 273.55300903 C40.19205647 272.45901794 40.18017921 271.36502686 40.16794205 270.23788452 C39.63997398 220.90573796 39.61855092 171.57495243 39.64143372 122.24050903 C39.64185795 121.29896611 39.64228218 120.35742318 39.64271927 119.38734865 C39.65388982 95.00505911 39.67414521 70.62278286 39.70393372 46.24050903 C53.34654673 45.12354132 53.34654673 45.12354132 59.75666809 45.06350708 C60.97503357 45.05067184 62.19339905 45.03783661 63.44868469 45.02461243 C64.71885437 45.01722549 65.98902405 45.00983856 67.29768372 45.00222778 C67.96458725 44.99815226 68.63149078 44.99407673 69.31860352 44.9898777 C72.84141197 44.96924229 76.36418396 44.95483933 79.88703918 44.94534302 C83.48071823 44.93425487 87.07378242 44.89976249 90.66724396 44.86017132 C93.47459406 44.8337953 96.28180087 44.82563342 99.08926392 44.82206154 C101.04599418 44.81496072 103.00262545 44.78864226 104.95918274 44.76167297 C114.03134694 44.78345727 122.50530572 46.14119503 130.70393372 50.24050903 C130.70393372 50.90050903 130.70393372 51.56050903 130.70393372 52.24050903 C131.42580872 52.48800903 132.14768372 52.73550903 132.89143372 52.99050903 C135.95106638 54.35034577 138.17130752 56.06968658 140.70393372 58.24050903 C136.648143 58.5157234 134.26131222 57.78871679 130.70393372 55.86550903 C124.97092064 52.80193017 120.18941713 51.05119446 113.70393372 50.24050903 C112.95676086 50.06777466 112.20958801 49.89504028 111.43977356 49.71707153 C108.0589331 49.12815483 104.86286383 49.14701311 101.43049622 49.17800903 C99.94742332 49.18582551 98.4643504 49.19363785 96.98127747 49.20144653 C94.70375145 49.21956376 92.42625514 49.23959358 90.14875793 49.26101685 C78.93255068 49.35703304 67.74232811 49.11760487 56.53352356 48.73660278 C55.08892248 48.68857703 53.64431699 48.64068388 52.19970703 48.59292603 C48.70106381 48.47697935 45.2024834 48.35924877 41.70393372 48.24050903 C41.81345182 68.21505761 41.9265095 88.18958355 42.04327297 108.16409111 C42.09747119 117.44834486 42.15068557 126.73260191 42.20124817 136.01687622 C42.4091822 174.08456157 42.65653208 212.15115938 43.14607358 250.21641779 C43.17617208 252.59036151 43.20488516 254.96431828 43.23322868 257.33828354 C43.27781725 261.04496071 43.3267354 264.7515569 43.37902522 268.45813322 C43.40595314 270.42000551 43.42933974 272.38192545 43.45253944 274.34384537 C43.56934306 282.10411787 43.9372872 289.81530956 44.46509457 297.55618095 C45.46566242 312.99092118 45.46566242 312.99092118 43.10139465 316.86941528 C39.95923318 319.97701938 38.28643688 319.89072662 33.91877747 319.94754028 C33.26244827 319.96266159 32.60611908 319.9777829 31.92990112 319.99336243 C29.83340037 320.03617731 27.73832668 320.04504156 25.64143372 320.05300903 C24.25923323 320.07617803 22.8770678 320.10154835 21.49494934 320.12918091 C18.80853395 320.17844833 16.12499632 320.20468123 13.43782043 320.21951294 C11.09028737 320.2327134 8.74271929 320.26363493 6.39582825 320.32009888 C4.94152405 320.34837769 4.94152405 320.34837769 3.45783997 320.37722778 C2.62711975 320.39873901 1.79639954 320.42025024 0.94050598 320.44241333 C-1.65195947 320.20838114 -3.14215235 319.70339835 -5.29606628 318.24050903 C-10.30157366 310.30175102 -8.44350066 297.41141778 -8.43650818 288.33946228 C-8.44096486 286.49344446 -8.44096486 286.49344446 -8.44551158 284.61013335 C-8.45262357 281.23427986 -8.45536546 277.85847735 -8.45610905 274.48262012 C-8.4579768 270.82701047 -8.46553169 267.17141147 -8.47224426 263.51580811 C-8.48574888 255.547691 -8.49183765 247.57957898 -8.49625492 239.61145234 C-8.4990262 234.63515445 -8.50326469 229.65885847 -8.50775909 224.68256187 C-8.51993287 210.8957586 -8.53024146 197.10895685 -8.53363419 183.32214832 C-8.53385375 182.44229225 -8.53407332 181.56243618 -8.53429954 180.6559178 C-8.53451782 179.77404458 -8.53473609 178.89217135 -8.53496099 177.98357469 C-8.53540444 176.19674226 -8.53585101 174.40990982 -8.53630066 172.62307739 C-8.53652209 171.73675972 -8.53674352 170.85044204 -8.53697166 169.93726625 C-8.54093053 155.53523294 -8.55842601 141.13324987 -8.58166018 126.73123602 C-8.60533867 111.93443042 -8.61783414 97.13765012 -8.6190021 82.34082526 C-8.61991992 74.03658943 -8.62570055 65.73241942 -8.64382172 57.42820168 C-8.65917421 50.36846775 -8.66437138 43.30882008 -8.65608361 36.24907265 C-8.65216213 32.64572036 -8.65317966 29.04254206 -8.66714096 25.43921089 C-8.68210796 21.54097614 -8.67405964 17.64298981 -8.66355896 13.74473572 C-8.67161536 12.59603542 -8.67967177 11.44733512 -8.68797231 10.26382571 C-8.68138246 9.22632543 -8.67479262 8.18882514 -8.66800308 7.11988544 C-8.66860017 6.2194008 -8.66919726 5.31891616 -8.66981244 4.3911441 C-8.54647621 3.68143453 -8.42313998 2.97172495 -8.29606628 2.24050903 C-4.95048658 0.01012257 -3.90212457 -0.00752579 0 0 Z " fill="#1B75A7" transform="translate(123.29606628417969,76.75949096679688)"/>
<path d="M0 0 C14.85 0 29.7 0 45 0 C45 12.21 45 24.42 45 37 C30.15 37 15.3 37 0 37 C0 24.79 0 12.58 0 0 Z " fill="#FDFEFE" transform="translate(197,153)"/>
<path d="M0 0 C15.68228009 -0.07031358 31.36451709 -0.12309702 47.04691601 -0.15543652 C54.32975241 -0.17085641 61.61249044 -0.19185166 68.89526367 -0.22631836 C75.24845285 -0.25637115 81.60157074 -0.27561038 87.95482904 -0.28226548 C91.31388822 -0.28615114 94.67258316 -0.29679215 98.03160667 -0.31719017 C101.7961752 -0.33913104 105.56032848 -0.34195993 109.32495117 -0.34057617 C110.96602844 -0.35675491 110.96602844 -0.35675491 112.64025879 -0.3732605 C131.70200828 -0.29799172 131.70200828 -0.29799172 137 5 C135.02043559 4.85966889 133.04134859 4.7125877 131.0625 4.5625 C129.96035156 4.48128906 128.85820312 4.40007812 127.72265625 4.31640625 C125 4 125 4 124 3 C122.40618922 2.89187487 120.80762353 2.85315703 119.21018982 2.84178162 C118.17387421 2.8319928 117.13755859 2.82220398 116.06983948 2.81211853 C114.92329391 2.80636307 113.77674835 2.8006076 112.59545898 2.79467773 C111.39562378 2.78477814 110.19578857 2.77487854 108.95959473 2.76467896 C105.66017762 2.73842867 102.36078552 2.71659258 99.0613277 2.69667697 C95.6166283 2.67485486 92.17197358 2.64744777 88.72731018 2.62062073 C82.20020511 2.57064262 75.67307532 2.52572286 69.14592177 2.48259836 C61.71674811 2.43326962 54.28761927 2.37833537 46.85848892 2.32291877 C31.57236732 2.2090202 16.28620457 2.1021984 1 2 C1.13083588 20.0527339 1.26582572 38.10543524 1.40385818 56.15811539 C1.42629868 59.09331315 1.44864018 62.02851163 1.47089767 64.96371078 C1.75638628 106.58479986 1.75638628 106.58479986 2.2890625 148.203125 C2.30068798 148.90972134 2.31231346 149.61631767 2.32429123 150.34432602 C2.40154341 155.00042131 2.48201867 159.65645945 2.5625 164.3125 C3.40846676 213.53401744 3.08689396 262.77328924 3 312 C6.96 311.67 10.92 311.34 15 311 C24.57 311 34.14 311 44 311 C43.67 276.35 43.34 241.7 43 206 C42.67 206 42.34 206 42 206 C41.976673 184.76471249 41.95902181 163.52942708 41.94818783 142.29412937 C41.94302445 132.43493281 41.93598095 122.5757442 41.92456055 112.71655273 C41.91461499 104.12652183 41.90814688 95.53649669 41.90591151 86.94646019 C41.90460418 82.39518805 41.90151695 77.84393236 41.89426994 73.29266548 C41.88751175 69.01395181 41.88538263 64.73526147 41.88689232 60.45654297 C41.8866159 58.88149323 41.88460959 57.30644277 41.88079453 55.73139763 C41.8758604 53.59035748 41.87700065 51.44940685 41.87974548 49.30836487 C41.87882369 48.10726861 41.8779019 46.90617235 41.87695217 45.66867924 C42 43 42 43 43 42 C45.17805719 41.90570658 47.3592128 41.88257462 49.53930664 41.88647461 C50.22220261 41.88632858 50.90509857 41.88618256 51.60868835 41.8860321 C53.87587614 41.88673124 56.14298274 41.8945236 58.41015625 41.90234375 C59.97814387 41.90420793 61.54613207 41.90563183 63.11412048 41.90663147 C67.24876503 41.91045666 71.38337466 41.92028694 75.51800537 41.93133545 C79.73400398 41.94154956 83.95000822 41.94612909 88.16601562 41.95117188 C96.44402647 41.96190921 104.7220089 41.97898564 113 42 C113 42.33 113 42.66 113 43 C90.56 43.33 68.12 43.66 45 44 C45.0721875 54.704375 45.144375 65.40875 45.21875 76.4375 C45.26480368 83.42879 45.31072535 90.42008012 45.35571289 97.41137695 C45.36145266 98.30318999 45.36719242 99.19500303 45.37310612 100.1138407 C45.41570849 106.74255854 45.4579434 113.37127868 45.5 120 C45.50594854 120.93634136 45.51189708 121.87268271 45.51802588 122.83739805 C45.83205572 172.32924984 46.10122694 221.819473 46.0625 271.3125 C46.06121597 272.96605499 46.06121597 272.96605499 46.05990601 274.65301514 C46.04918512 287.43537498 46.02651328 300.21765309 46 313 C31.15 313 16.3 313 1 313 C-0.04941429 250.02922699 -0.12610908 187.06887754 -0.07202661 124.09048212 C-0.06403147 114.60565062 -0.05859537 105.12082046 -0.05493164 95.63598633 C-0.05466892 94.95778452 -0.05440619 94.27958271 -0.05413551 93.58082933 C-0.05282948 90.17493679 -0.05156601 86.76904423 -0.05032361 83.36315167 C-0.04013316 55.5754291 -0.02260467 27.78771505 0 0 Z " fill="#B4DBEC" transform="translate(118,79)"/>
<path d="M0 0 C1.09796402 -0.00274933 2.19592804 -0.00549866 3.3271637 -0.0083313 C4.53197388 -0.00114075 5.73678406 0.0060498 6.97810364 0.01345825 C8.24650589 0.0131662 9.51490814 0.01287415 10.82174683 0.01257324 C14.30085359 0.0119988 17.77982278 0.02376782 21.25889754 0.03772116 C24.89440322 0.05021332 28.52991196 0.05139782 32.16543579 0.05377197 C39.05023038 0.0599912 45.93496155 0.07640799 52.8197282 0.09647095 C60.65760828 0.11881619 68.49549136 0.12981992 76.33339536 0.13986182 C92.45694529 0.16077385 108.58043141 0.1959584 124.70393372 0.24050903 C124.70393372 0.90050903 124.70393372 1.56050903 124.70393372 2.24050903 C125.65268372 2.38488403 126.60143372 2.52925903 127.57893372 2.67800903 C130.70393372 3.24050903 130.70393372 3.24050903 132.70393372 4.24050903 C134.02393372 4.24050903 135.34393372 4.24050903 136.70393372 4.24050903 C140.70393372 4.24050903 140.70393372 4.24050903 142.70393372 5.24050903 C142.70393372 5.90050903 142.70393372 6.56050903 142.70393372 7.24050903 C144.03424622 7.36425903 144.03424622 7.36425903 145.39143372 7.49050903 C148.70393372 8.24050903 148.70393372 8.24050903 151.07893372 10.24050903 C154.66097574 12.96968391 157.25528178 12.93890551 161.70393372 13.24050903 C162.03393372 14.23050903 162.36393372 15.22050903 162.70393372 16.24050903 C164.79621561 18.06181095 164.79621561 18.06181095 167.26643372 19.80300903 C168.78095515 20.90168683 170.27011285 22.03841679 171.70393372 23.24050903 C171.70393372 23.90050903 171.70393372 24.56050903 171.70393372 25.24050903 C172.78674622 25.30238403 172.78674622 25.30238403 173.89143372 25.36550903 C177.81053898 26.58478623 179.20109025 29.07902255 181.70393372 32.24050903 C182.69393372 32.57050903 183.68393372 32.90050903 184.70393372 33.24050903 C185.03393372 35.22050903 185.36393372 37.20050903 185.70393372 39.24050903 C186.36393372 39.24050903 187.02393372 39.24050903 187.70393372 39.24050903 C187.70393372 39.90050903 187.70393372 40.56050903 187.70393372 41.24050903 C188.69393372 41.57050903 189.68393372 41.90050903 190.70393372 42.24050903 C190.70393372 43.23050903 190.70393372 44.22050903 190.70393372 45.24050903 C191.36393372 45.24050903 192.02393372 45.24050903 192.70393372 45.24050903 C193.68049622 47.03087362 194.65705872 48.8212382 195.63362122 50.61160278 C196.61803396 52.40669219 196.61803396 52.40669219 198.70393372 53.24050903 C199.43087276 55.21939864 200.10209623 57.22005461 200.70393372 59.24050903 C201.36393372 59.24050903 202.02393372 59.24050903 202.70393372 59.24050903 C206.50736605 64.31175214 207.70393372 70.01634679 207.70393372 76.24050903 C208.33041809 76.44933716 208.95690247 76.65816528 209.60237122 76.87332153 C211.70393372 78.24050903 211.70393372 78.24050903 212.68049622 80.85769653 C212.89448059 81.93277466 213.10846497 83.00785278 213.32893372 84.11550903 C213.65764465 85.68945435 213.65764465 85.68945435 213.99299622 87.29519653 C214.23028362 88.61024512 214.46721849 89.92535733 214.70393372 91.24050903 C214.88109924 92.11852173 215.05826477 92.99653442 215.24079895 93.90115356 C216.67831771 101.49991404 216.87518595 108.65460649 216.51643372 116.36550903 C216.48485168 117.46765747 216.45326965 118.56980591 216.42073059 119.70535278 C215.94180482 131.40779983 212.63700146 141.9651861 206.45393372 151.92800903 C204.45271767 155.06764797 204.45271767 155.06764797 204.76643372 158.30300903 C204.67255409 162.71535158 202.82168789 164.19526077 199.70393372 167.24050903 C198.71393372 167.24050903 197.72393372 167.24050903 196.70393372 167.24050903 C198.02068854 162.61580917 199.38915964 158.46601602 202.14143372 154.49050903 C213.77743221 136.75612579 213.0585723 107.72373569 209.52058411 87.66799927 C206.45510461 73.18324545 199.83565869 56.36025901 188.70393372 46.24050903 C187.63659637 44.86420561 186.59351969 43.46864862 185.57893372 42.05300903 C173.24165144 25.97715637 155.37111652 15.10224851 136.51643372 8.42800903 C135.28775574 7.99282959 135.28775574 7.99282959 134.03425598 7.54885864 C124.10879795 4.17537682 114.84532054 2.9452788 104.36946106 3.01345825 C103.17806519 3.0131662 101.98666931 3.01287415 100.75917053 3.01257324 C97.52425772 3.01371964 94.28952281 3.0236809 91.05464506 3.03772116 C87.66208401 3.05030851 84.26951867 3.05140528 80.87693787 3.05377197 C74.46694772 3.0599634 68.0570266 3.07634222 61.64706671 3.09647095 C53.62567109 3.12110781 45.60426403 3.13198629 37.58283997 3.14285278 C23.28981758 3.1622755 8.99694561 3.20234911 -5.29606628 3.24050903 C-5.62606628 40.86050903 -5.95606628 78.48050903 -6.29606628 117.24050903 C-6.62606628 117.24050903 -6.95606628 117.24050903 -7.29606628 117.24050903 C-8.0603264 109.96740611 -8.44840895 102.7878579 -8.4571991 95.47659302 C-8.462164 94.46382797 -8.46712891 93.45106293 -8.47224426 92.40760803 C-8.48669973 89.10059912 -8.49363428 85.79363791 -8.49919128 82.48660278 C-8.50201866 81.3518004 -8.50484604 80.21699802 -8.50775909 79.04780769 C-8.52267198 73.060851 -8.5319555 67.07391798 -8.53630066 61.08694458 C-8.54182193 54.89606383 -8.56594847 48.70539898 -8.59427261 42.51458645 C-8.61283591 37.75267378 -8.61810087 32.99081429 -8.61963654 28.22886848 C-8.62267005 25.94460919 -8.63072192 23.66035099 -8.64382172 21.37612724 C-8.66077492 18.19720353 -8.65903015 15.01882415 -8.6525116 11.83987427 C-8.66172638 10.89186951 -8.67094116 9.94386475 -8.68043518 8.96713257 C-8.67486603 8.10520798 -8.66929688 7.24328339 -8.66355896 6.35523987 C-8.66502552 5.6044387 -8.66649208 4.85363752 -8.66800308 4.0800848 C-7.77386157 -0.34228229 -3.64510485 -0.0070301 0 0 Z " fill="#0F6FA1" transform="translate(123.29606628417969,76.75949096679688)"/>
<path d="M0 0 C1.21836548 -0.01283524 2.43673096 -0.02567047 3.6920166 -0.03889465 C4.96218628 -0.04628159 6.23235596 -0.05366852 7.54101562 -0.0612793 C8.20791916 -0.06535482 8.87482269 -0.06943035 9.56193542 -0.07362938 C13.08474388 -0.09426479 16.60751587 -0.10866775 20.13037109 -0.11816406 C23.72405014 -0.12925221 27.31711433 -0.16374459 30.91057587 -0.20333576 C33.71792597 -0.22971178 36.52513277 -0.23787366 39.33259583 -0.24144554 C41.28932609 -0.24854636 43.24595736 -0.27486482 45.20251465 -0.30183411 C54.27467884 -0.28004981 62.74863763 1.07768795 70.94726562 5.17700195 C70.94726562 5.83700195 70.94726562 6.49700195 70.94726562 7.17700195 C72.03007812 7.54825195 72.03007812 7.54825195 73.13476562 7.92700195 C76.19439829 9.28683869 78.41463942 11.0061795 80.94726562 13.17700195 C76.89147491 13.45221632 74.50464413 12.72520971 70.94726562 10.80200195 C65.21425254 7.73842309 60.43274904 5.98768738 53.94726562 5.17700195 C53.20009277 5.00426758 52.45291992 4.8315332 51.68310547 4.65356445 C48.30226501 4.06464775 45.10619574 4.08350603 41.67382812 4.11450195 C40.19075523 4.12231843 38.70768231 4.13013077 37.22460938 4.13793945 C34.94708336 4.15605668 32.66958704 4.1760865 30.39208984 4.19750977 C14.20684081 4.33606337 -1.8435644 3.6998784 -18.05273438 3.17700195 C-18.05273438 91.28700195 -18.05273438 179.39700195 -18.05273438 270.17700195 C-18.38273438 270.17700195 -18.71273437 270.17700195 -19.05273438 270.17700195 C-19.23861992 256.28138536 -19.40199885 242.38554318 -19.55273438 228.48950195 C-19.56461163 227.39551086 -19.57648888 226.30151978 -19.58872604 225.17437744 C-20.11669411 175.84223088 -20.13811717 126.51144535 -20.11523438 77.17700195 C-20.11481014 76.23545903 -20.11438591 75.2939161 -20.11394882 74.32384157 C-20.10277827 49.94155203 -20.08252288 25.55927578 -20.05273438 1.17700195 C-6.41012136 0.06003424 -6.41012136 0.06003424 0 0 Z " fill="#3384B1" transform="translate(183.052734375,121.822998046875)"/>
<path d="M0 0 C16.01993537 -0.02332916 32.03986526 -0.04097926 48.0598135 -0.05181217 C55.4976451 -0.05697509 62.93546617 -0.06401771 70.37329102 -0.07543945 C76.85381342 -0.08538641 83.33432819 -0.09185346 89.81485802 -0.09408849 C93.24830542 -0.09539558 96.681731 -0.0984813 100.11517143 -0.10573006 C103.94193821 -0.11374416 107.76868335 -0.11399113 111.59545898 -0.11352539 C112.74200455 -0.11712067 113.88855011 -0.12071594 115.06983948 -0.12442017 C116.6243129 -0.12235817 116.6243129 -0.12235817 118.21018982 -0.12025452 C119.11631232 -0.12117631 120.02243483 -0.1220981 120.95601559 -0.12304783 C123 0 123 0 124 1 C127.30356977 1.44877261 130.60607266 1.81919816 133.921875 2.16210938 C137.91943084 2.61403894 141.35125718 3.28336706 145 5 C145 5.33 145 5.66 145 6 C143.7109375 5.855625 142.421875 5.71125 141.09375 5.5625 C137.8032461 5.1963154 134.51181504 4.84234835 131.21875 4.5 C128.859375 4.25 128.859375 4.25 126.5 4 C125.69046875 3.9175 124.8809375 3.835 124.046875 3.75 C118.11278195 3.11278195 118.11278195 3.11278195 117 2 C115.50716202 1.90428029 114.00980345 1.87811773 112.51390076 1.87974548 C111.54489838 1.87837082 110.575896 1.87699615 109.57752991 1.87557983 C108.50579025 1.87917511 107.4340506 1.88277039 106.32983398 1.88647461 C105.20802734 1.88632858 104.0862207 1.88618256 102.93041992 1.8860321 C99.20229189 1.8867318 95.47421311 1.89452685 91.74609375 1.90234375 C89.16919482 1.90420773 86.59229553 1.90563173 84.01539612 1.90663147 C77.91324885 1.91006658 71.81112206 1.9179574 65.70898253 1.92798096 C58.7635075 1.93914311 51.81803165 1.9446528 44.87254989 1.94967639 C30.58169034 1.96014004 16.2908458 1.97773885 2 2 C2.01252808 3.24812973 2.02505615 4.49625946 2.03796387 5.7822113 C2.20589365 22.66718475 2.35742469 39.55229538 2.5 56.4375 C2.50594854 57.1398869 2.51189708 57.8422738 2.51802588 58.56594515 C2.99974744 115.60651147 3.08737325 172.6451008 3.0625 229.6875 C3.06207577 230.68927324 3.06165154 231.69104648 3.06121445 232.72317648 C3.05012119 258.48212693 3.03000093 284.24106468 3 310 C2.67 310 2.34 310 2 310 C1.98969254 308.74199081 1.97938507 307.48398163 1.96876526 306.18785095 C1.8474107 291.41635865 1.72265506 276.6448964 1.59614182 261.87344742 C1.56245526 257.93226524 1.52904047 253.99108082 1.49563599 250.04989624 C1.20842608 214.0822877 1.20842608 214.0822877 0.7109375 178.1171875 C0.69931202 177.43844448 0.68768654 176.75970146 0.67570877 176.06039047 C0.61905352 172.75975344 0.56162546 169.45913008 0.50408936 166.1585083 C-0.4546812 110.78269804 -0.08742728 55.38205985 0 0 Z " fill="#E1F7FD" transform="translate(119,81)"/>
<path d="M0 0 C14.85 0 29.7 0 45 0 C45 14.52 45 29.04 45 44 C44.01 43.505 44.01 43.505 43 43 C42.67 29.8 42.34 16.6 42 3 C29.13 3 16.26 3 3 3 C3 31.05 3 59.1 3 88 C32.08163859 87.60357383 32.08163859 87.60357383 56.78515625 82.796875 C58.21076709 82.44722112 59.63654423 82.09824452 61.0625 81.75 C61.79404297 81.564375 62.52558594 81.37875 63.27929688 81.1875 C68.65793448 79.88597816 68.65793448 79.88597816 72 81 C65.5 84 65.5 84 61 84 C61 84.66 61 85.32 61 86 C40.55282956 90.93098966 21.41283083 91 0 91 C0 60.97 0 30.94 0 0 Z " fill="#B9E3F0" transform="translate(197,206)"/>
<path d="M0 0 C15.68228009 -0.07031358 31.36451709 -0.12309702 47.04691601 -0.15543652 C54.32975241 -0.17085641 61.61249044 -0.19185166 68.89526367 -0.22631836 C75.24845285 -0.25637115 81.60157074 -0.27561038 87.95482904 -0.28226548 C91.31388822 -0.28615114 94.67258316 -0.29679215 98.03160667 -0.31719017 C101.7961752 -0.33913104 105.56032848 -0.34195993 109.32495117 -0.34057617 C110.96602844 -0.35675491 110.96602844 -0.35675491 112.64025879 -0.3732605 C131.70200828 -0.29799172 131.70200828 -0.29799172 137 5 C135.02043559 4.85966889 133.04134859 4.7125877 131.0625 4.5625 C129.96035156 4.48128906 128.85820312 4.40007812 127.72265625 4.31640625 C125 4 125 4 124 3 C122.40618922 2.89187487 120.80762353 2.85315703 119.21018982 2.84178162 C118.17387421 2.8319928 117.13755859 2.82220398 116.06983948 2.81211853 C114.92329391 2.80636307 113.77674835 2.8006076 112.59545898 2.79467773 C111.39562378 2.78477814 110.19578857 2.77487854 108.95959473 2.76467896 C105.66017762 2.73842867 102.36078552 2.71659258 99.0613277 2.69667697 C95.6166283 2.67485486 92.17197358 2.64744777 88.72731018 2.62062073 C82.20020511 2.57064262 75.67307532 2.52572286 69.14592177 2.48259836 C61.71674811 2.43326962 54.28761927 2.37833537 46.85848892 2.32291877 C31.57236732 2.2090202 16.28620457 2.1021984 1 2 C1.00515373 3.05601347 1.01030746 4.11202694 1.01561737 5.20004082 C1.14335043 31.39380534 1.26847502 57.58758146 1.39115143 83.78137016 C1.45054186 96.45060672 1.51066928 109.11983884 1.57275391 121.7890625 C1.88462715 185.52651792 2.08137558 249.2617479 2 313 C1.67 313 1.34 313 1 313 C-0.0851309 250.03057056 -0.12610814 187.06778476 -0.07202661 124.09048212 C-0.06403147 114.60565062 -0.05859537 105.12082046 -0.05493164 95.63598633 C-0.05466892 94.95778452 -0.05440619 94.27958271 -0.05413551 93.58082933 C-0.05282948 90.17493679 -0.05156601 86.76904423 -0.05032361 83.36315167 C-0.04013316 55.5754291 -0.02260467 27.78771505 0 0 Z " fill="#6FAECE" transform="translate(118,79)"/>
<path d="M0 0 C4.12838068 0.60711481 7.40422382 1.87522317 11 4 C11.33 4.99 11.66 5.98 12 7 C12.721875 7.04125 13.44375 7.0825 14.1875 7.125 C18.10660527 8.34427719 19.49715654 10.83851352 22 14 C22.99 14.33 23.98 14.66 25 15 C25.33 16.98 25.66 18.96 26 21 C26.66 21 27.32 21 28 21 C28 21.66 28 22.32 28 23 C28.99 23.33 29.98 23.66 31 24 C31 24.99 31 25.98 31 27 C31.66 27 32.32 27 33 27 C33.9765625 28.79036458 34.953125 30.58072917 35.9296875 32.37109375 C36.91410024 34.16618315 36.91410024 34.16618315 39 35 C39.72693904 36.97888961 40.39816251 38.97954558 41 41 C41.66 41 42.32 41 43 41 C46.80343233 46.07124311 48 51.77583775 48 58 C48.62648438 58.20882812 49.25296875 58.41765625 49.8984375 58.6328125 C52 60 52 60 52.9765625 62.6171875 C53.19054687 63.69226563 53.40453125 64.76734375 53.625 65.875 C53.84414063 66.92429687 54.06328125 67.97359375 54.2890625 69.0546875 C54.52634991 70.36973608 54.76328478 71.6848483 55 73 C55.17716553 73.8780127 55.35433105 74.75602539 55.53686523 75.66064453 C56.974384 83.25940501 57.17125224 90.41409746 56.8125 98.125 C56.78091797 99.22714844 56.74933594 100.32929688 56.71679688 101.46484375 C56.23787111 113.1672908 52.93306774 123.72467707 46.75 133.6875 C44.74878395 136.82713893 44.74878395 136.82713893 45.0625 140.0625 C44.96862037 144.47484255 43.11775418 145.95475173 40 149 C39.01 149 38.02 149 37 149 C38.31675482 144.37530014 39.68522593 140.22550699 42.4375 136.25 C54.07349849 118.51561675 53.35463859 89.48322665 49.81665039 69.42749023 C46.7511709 54.94273641 40.13172497 38.11974997 29 28 C27.93266265 26.62369657 26.88958597 25.22813959 25.875 23.8125 C19.28187187 15.22145426 10.86126785 8.64202814 2.01953125 2.49609375 C1.35308594 2.00238281 0.68664062 1.50867188 0 1 C0 0.67 0 0.34 0 0 Z " fill="#1772A4" transform="translate(283,95)"/>
<path d="M0 0 C0.495 0.99 0.495 0.99 1 2 C1.66 2 2.32 2 3 2 C4.80761192 7.42283575 4.30557215 13.42028695 4.35009766 19.10571289 C4.36668172 20.65859946 4.39400458 22.21140893 4.43212891 23.76391602 C4.48691249 26.00837576 4.50876661 28.25105551 4.5234375 30.49609375 C4.54610687 31.18787216 4.56877625 31.87965057 4.59213257 32.59239197 C4.57714001 36.01538309 4.21275003 37.73639402 2.04516602 40.42211914 C-2.10687767 42.57353887 -5.62591928 42.67530889 -10.24609375 42.75 C-11.57919334 42.78903442 -11.57919334 42.78903442 -12.93922424 42.82885742 C-14.81415335 42.87839282 -16.68936334 42.918143 -18.56469727 42.94873047 C-21.42561004 42.99978781 -24.28292997 43.09348489 -27.14257812 43.19140625 C-28.96869124 43.23434699 -30.79486504 43.27479444 -32.62109375 43.3125 C-33.47126572 43.3424707 -34.32143768 43.37244141 -35.19737244 43.40332031 C-40.60534602 43.45316058 -43.76217253 42.69798751 -48 39 C-49.39431771 34.57428619 -49.07330963 30.05142494 -49 25.4375 C-48.9280856 19.0660327 -49.24111157 12.82301327 -49.87890625 6.4765625 C-50 4 -50 4 -49 2 C-46.1413258 1.01461362 -43.42143973 0.85379235 -40.41503906 0.79467773 C-39.06409149 0.7647599 -39.06409149 0.7647599 -37.68585205 0.73423767 C-36.24033966 0.70916893 -36.24033966 0.70916893 -34.765625 0.68359375 C-33.27588165 0.6524221 -33.27588165 0.6524221 -31.75604248 0.62062073 C-28.58743118 0.55530251 -25.41873789 0.49632261 -22.25 0.4375 C-20.10025198 0.39429793 -17.95051222 0.35068309 -15.80078125 0.30664062 C-10.53394051 0.19963929 -5.26701845 0.09784009 0 0 Z M-45 2 C-45 14.21 -45 26.42 -45 39 C-30.15 39 -15.3 39 0 39 C0 26.79 0 14.58 0 2 C-14.85 2 -29.7 2 -45 2 Z " fill="#257FB0" transform="translate(242,151)"/>
<path d="M0 0 C14.85 0 29.7 0 45 0 C45 12.21 45 24.42 45 37 C30.15 37 15.3 37 0 37 C0 24.79 0 12.58 0 0 Z M2 3 C2.144375 7.929375 2.28875 12.85875 2.4375 17.9375 C2.48060303 19.49460693 2.52370605 21.05171387 2.56811523 22.65600586 C2.60622314 23.87167236 2.64433105 25.08733887 2.68359375 26.33984375 C2.72025146 27.59144287 2.75690918 28.84304199 2.79467773 30.13256836 C2.67803906 32.89630504 2.67803906 32.89630504 4 34 C6.8116338 34.08861992 9.59858255 34.11522355 12.41015625 34.09765625 C13.67320839 34.09553383 13.67320839 34.09553383 14.96177673 34.09336853 C17.66205335 34.08775263 20.36224828 34.07519748 23.0625 34.0625 C24.88867068 34.05748705 26.71484266 34.05292379 28.54101562 34.04882812 C33.02740085 34.03862716 37.51360855 34.01905499 42 34 C42 23.77 42 13.54 42 3 C28.8 3 15.6 3 2 3 Z " fill="#BEE5F1" transform="translate(197,153)"/>
<path d="M0 0 C6.6 0 13.2 0 20 0 C20 0.33 20 0.66 20 1 C19.03578125 1.04898438 18.0715625 1.09796875 17.078125 1.1484375 C15.81484375 1.22320312 14.5515625 1.29796875 13.25 1.375 C11.37054688 1.47941406 11.37054688 1.47941406 9.453125 1.5859375 C6.30864983 1.96298995 4.70051563 2.52558054 2 4 C1.94560969 24.92468552 1.96654424 45.84608837 2.21875 66.76953125 C2.22973724 67.68851826 2.24072449 68.60750526 2.25204468 69.55434036 C2.30942927 74.32892354 2.36810922 79.10349 2.42724609 83.87805176 C2.77104867 111.77156367 3.04540056 139.66270199 3.03125 167.55859375 C3.03074142 168.62896692 3.03023285 169.6993401 3.02970886 170.80214882 C3.02327167 181.15567188 3.00556341 191.50912486 2.97194672 201.86259556 C2.96032361 205.64271743 2.95220324 209.42284255 2.94456482 213.20297432 C2.93767789 215.79248755 2.92509058 218.38193094 2.91223145 220.97142029 C2.90864637 222.52228736 2.90533345 224.0731551 2.90234375 225.62402344 C2.89459805 226.6669617 2.89459805 226.6669617 2.88669586 227.73096943 C2.88632361 230.9972056 3.11264609 233.86144049 4 237 C4.06898242 239.59373914 4.09434752 242.15810197 4.0625 244.75 C4.05798828 245.44738281 4.05347656 246.14476562 4.04882812 246.86328125 C4.0371002 248.57555803 4.01916653 250.28779033 4 252 C3.34 252.33 2.68 252.66 2 253 C1.28657006 242.7558323 0.82019325 232.54896875 0.68579102 222.27783203 C0.6651236 220.87959375 0.64424962 219.4813585 0.62318993 218.08312607 C0.56786934 214.30805978 0.51855747 210.53293944 0.47130275 206.75776434 C0.44100681 204.35108115 0.40939987 201.94441776 0.3775959 199.53775406 C-0.12046788 161.3833544 -0.12018023 123.22969162 -0.07202756 85.0727303 C-0.06048177 75.75334268 -0.05526217 66.43395393 -0.05032361 57.11456084 C-0.0401058 38.0763655 -0.02251439 19.03818453 0 0 Z " fill="#117BB6" transform="translate(165,125)"/>
<path d="M0 0 C0.83050873 0.02220612 1.66101746 0.04441223 2.51669312 0.06729126 C3.92792953 0.09754898 3.92792953 0.09754898 5.36767578 0.12841797 C6.38542084 0.16061432 7.40316589 0.19281067 8.45175171 0.22598267 C10.01232803 0.26352158 10.01232803 0.26352158 11.60443115 0.30181885 C14.93667423 0.3841771 18.26833852 0.48070576 21.60018921 0.57754517 C23.85537368 0.63576852 26.1105821 0.69307212 28.36581421 0.74942017 C33.90259489 0.8897793 39.43896542 1.04178316 44.97518921 1.20254517 C44.97518921 1.53254517 44.97518921 1.86254517 44.97518921 2.20254517 C30.12518921 2.20254517 15.27518921 2.20254517 -0.02481079 2.20254517 C-0.02481079 31.90254517 -0.02481079 61.60254517 -0.02481079 92.20254517 C-1.01481079 91.87254517 -2.00481079 91.54254517 -3.02481079 91.20254517 C-3.00740845 89.98244751 -3.00740845 89.98244751 -2.98965454 88.73770142 C-2.9403299 82.47347173 -3.05184443 76.31738744 -3.51699829 70.06973267 C-4.29595567 58.14442221 -4.21085387 46.19514911 -4.21011353 34.24966431 C-4.21196586 30.89056473 -4.22387677 27.53181837 -4.24088573 24.17278385 C-4.25461139 20.94443052 -4.2540906 17.71608001 -4.25527954 14.48770142 C-4.26246506 13.28267471 -4.26965057 12.07764801 -4.27705383 10.83610535 C-4.2739772 9.72992355 -4.27090057 8.62374176 -4.26773071 7.48403931 C-4.26915573 6.50939224 -4.27058075 5.53474518 -4.27204895 4.53056335 C-3.94763637 1.47586346 -3.1323734 0.31333648 0 0 Z " fill="#1376AB" transform="translate(197.02481079101563,203.79745483398438)"/>
<path d="M0 0 C30.4115625 -0.0309375 30.4115625 -0.0309375 61.4375 -0.0625 C71.05604126 -0.07615601 71.05604126 -0.07615601 80.86889648 -0.09008789 C88.67199707 -0.09460449 88.67199707 -0.09460449 92.31971741 -0.09544373 C94.87885946 -0.09698387 97.43795299 -0.10014101 99.99708557 -0.10557556 C103.86321395 -0.11367764 107.72932171 -0.11390757 111.59545898 -0.11352539 C112.74416945 -0.1171235 113.89287992 -0.12072161 115.0763998 -0.12442875 C116.11055051 -0.12305125 117.14470121 -0.12167376 118.21018982 -0.12025452 C119.11631232 -0.12117631 120.02243483 -0.1220981 120.95601559 -0.12304783 C123 0 123 0 124 1 C127.30356977 1.44877261 130.60607266 1.81919816 133.921875 2.16210938 C137.91943084 2.61403894 141.35125718 3.28336706 145 5 C145 5.33 145 5.66 145 6 C143.7109375 5.855625 142.421875 5.71125 141.09375 5.5625 C137.8032461 5.1963154 134.51181504 4.84234835 131.21875 4.5 C128.859375 4.25 128.859375 4.25 126.5 4 C125.69046875 3.9175 124.8809375 3.835 124.046875 3.75 C118.11278195 3.11278195 118.11278195 3.11278195 117 2 C115.49491801 1.89212462 113.98483684 1.85317568 112.47593689 1.84178162 C111.5005619 1.83200759 110.5251869 1.82223356 109.52025509 1.81216335 C108.43712316 1.8063931 107.35399122 1.80062284 106.23803711 1.79467773 C105.08810304 1.78464501 103.93816896 1.77461229 102.7533884 1.76427555 C99.01139438 1.73276007 95.2693898 1.70806581 91.52734375 1.68359375 C89.22497196 1.66520234 86.92260368 1.64636633 84.62023926 1.6270752 C76.05936773 1.5584837 67.49842882 1.49852321 58.9375 1.4375 C39.818125 1.293125 20.69875 1.14875 1 1 C1 42.25 1 83.5 1 126 C0.67 126 0.34 126 0 126 C0 84.42 0 42.84 0 0 Z " fill="#CCEEF9" transform="translate(119,81)"/>
<path d="M0 0 C0.33 0.66 0.66 1.32 1 2 C1.99 2.33 2.98 2.66 4 3 C4.33 4.65 4.66 6.3 5 8 C5.66 8 6.32 8 7 8 C9.77806956 15.53808016 10.4094733 22.25640068 10.25 30.25 C10.24484375 31.29929688 10.2396875 32.34859375 10.234375 33.4296875 C10.18421768 38.38272296 10.03999783 43.13549402 9 48 C8.34 48 7.68 48 7 48 C7.061875 48.9075 7.12375 49.815 7.1875 50.75 C6.97146151 54.49466708 6.20674715 55.1191153 4 58 C3.17048691 59.79549447 2.3804882 61.6096242 1.625 63.4375 C-0.36924862 67.91124469 -2.24621643 70.77000018 -6 74 C-7.37963122 75.41215691 -8.75429472 76.82917753 -10.125 78.25 C-12.53697208 80.74643803 -13.66361736 81.88787245 -17 83 C-16.43386581 77.90479232 -12.54604059 75.28100506 -8.8125 72.1875 C-7 71 -7 71 -5 71 C-4.938125 70.13375 -4.87625 69.2675 -4.8125 68.375 C-3.80516821 64.1906987 -1.80382024 62.2141354 1 59 C2.58629227 55.60160873 3.40166111 52.37903724 4 48.6875 C4.54810194 45.42063843 5.16945193 42.29445873 6.125 39.125 C8.3829708 30.44870274 7.11086387 20.78772665 6 12 C5.01 12.33 4.02 12.66 3 13 C1.8422494 9.52674819 1.93133348 6.63932552 2 3 C1.34 3 0.68 3 0 3 C0 2.01 0 1.02 0 0 Z " fill="#237CA9" transform="translate(281,157)"/>
<path d="M0 0 C0.33 0 0.66 0 1 0 C1 21.78 1 43.56 1 66 C9.3840625 65.8453125 9.3840625 65.8453125 17.9375 65.6875 C19.68281006 65.66260498 21.42812012 65.63770996 23.22631836 65.61206055 C33.40265371 65.43465569 33.40265371 65.43465569 43.15795898 62.74194336 C46.19216388 61.5198163 49.35669255 61.03242715 52.5625 60.4375 C56.6696913 59.65890506 60.71963739 58.86002593 64.75 57.75 C68 57 68 57 71 58 C64.5 61 64.5 61 60 61 C60 61.66 60 62.32 60 63 C57.85548495 63.48503256 55.70930465 63.96270405 53.5625 64.4375 C52.36753906 64.70433594 51.17257813 64.97117187 49.94140625 65.24609375 C42.66819344 66.7255079 35.43449939 67.14799114 28.02734375 67.09765625 C27.30905396 67.09664917 26.59076416 67.09564209 25.85070801 67.09460449 C23.21295535 67.08944255 20.57522576 67.0754824 17.9375 67.0625 C12.018125 67.041875 6.09875 67.02125 0 67 C0 44.89 0 22.78 0 0 Z " fill="#B6E5F3" transform="translate(198,229)"/>
<path d="M0 0 C-1.98 0.33 -3.96 0.66 -6 1 C-6 1.66 -6 2.32 -6 3 C-11.36137881 5.12934194 -15.87134465 6.25789727 -21.640625 6.0390625 C-24.18077627 5.99700702 -26.60017052 6.22361334 -29.125 6.5 C-47.51032208 8.28926266 -47.51032208 8.28926266 -56 5 C-56 4.34 -56 3.68 -56 3 C-55.27748047 2.98541748 -54.55496094 2.97083496 -53.81054688 2.95581055 C-39.57767397 2.63775124 -25.56366142 2.00373766 -11.46679688 -0.0715332 C-10.53931641 -0.20519287 -9.61183594 -0.33885254 -8.65625 -0.4765625 C-7.84994141 -0.60111816 -7.04363281 -0.72567383 -6.21289062 -0.85400391 C-3.90384129 -1.0063441 -2.19769855 -0.68505403 0 0 Z " fill="#157AAF" transform="translate(254,294)"/>
<path d="M0 0 C0.83050873 0.02220612 1.66101746 0.04441223 2.51669312 0.06729126 C3.92792953 0.09754898 3.92792953 0.09754898 5.36767578 0.12841797 C6.38542084 0.16061432 7.40316589 0.19281067 8.45175171 0.22598267 C10.01232803 0.26352158 10.01232803 0.26352158 11.60443115 0.30181885 C14.93667423 0.3841771 18.26833852 0.48070576 21.60018921 0.57754517 C23.85537368 0.63576852 26.1105821 0.69307212 28.36581421 0.74942017 C33.90259489 0.8897793 39.43896542 1.04178316 44.97518921 1.20254517 C44.97518921 1.53254517 44.97518921 1.86254517 44.97518921 2.20254517 C30.12518921 2.20254517 15.27518921 2.20254517 -0.02481079 2.20254517 C-0.02481079 18.04254517 -0.02481079 33.88254517 -0.02481079 50.20254517 C-0.35481079 50.20254517 -0.68481079 50.20254517 -1.02481079 50.20254517 C-1.04463013 49.55817505 -1.06444946 48.91380493 -1.08486938 48.24990845 C-1.18126668 45.27543933 -1.2904718 42.30156559 -1.39981079 39.32754517 C-1.43074829 38.31434204 -1.46168579 37.30113892 -1.49356079 36.25723267 C-1.71502138 30.49925734 -2.34823579 25.13084245 -3.58389282 19.50674438 C-4.25005957 16.02541451 -4.28934756 12.74951596 -4.27481079 9.20254517 C-4.27996704 7.92379517 -4.28512329 6.64504517 -4.29043579 5.32754517 C-3.99785054 1.88536577 -3.64865013 0.3649805 0 0 Z " fill="#2F83AE" transform="translate(197.02481079101563,203.79745483398438)"/>
<path d="M0 0 C0.66 0 1.32 0 2 0 C2.33 1.32 2.66 2.64 3 4 C3.66 4 4.32 4 5 4 C5.13277344 4.78246094 5.26554687 5.56492188 5.40234375 6.37109375 C5.57894531 7.38300781 5.75554687 8.39492187 5.9375 9.4375 C6.11152344 10.44683594 6.28554688 11.45617187 6.46484375 12.49609375 C6.74751097 14.9287438 6.74751097 14.9287438 8 16 C8.96181444 29.05007319 8.78301554 42.41246615 5 55 C4.34 55 3.68 55 3 55 C2.896875 55.78375 2.79375 56.5675 2.6875 57.375 C2 60 2 60 -1 62 C-1.33 62.99 -1.66 63.98 -2 65 C-2.66 65 -3.32 65 -4 65 C-2.96021997 62.28057531 -1.84820903 59.7090673 -0.5 57.125 C1.11727823 53.75567036 2.06182964 50.60834752 3 47 C3.66 47 4.32 47 5 47 C5.90825345 23.0348903 5.90825345 23.0348903 0 0 Z " fill="#A6D4E5" transform="translate(285,158)"/>
<path d="M0 0 C4.12838068 0.60711481 7.40422382 1.87522317 11 4 C11.33 4.99 11.66 5.98 12 7 C12.721875 7.04125 13.44375 7.0825 14.1875 7.125 C18.10660527 8.34427719 19.49715654 10.83851352 22 14 C22.99 14.33 23.98 14.66 25 15 C25.33 16.98 25.66 18.96 26 21 C26.66 21 27.32 21 28 21 C28 21.66 28 22.32 28 23 C28.99 23.33 29.98 23.66 31 24 C31 24.99 31 25.98 31 27 C31.66 27 32.32 27 33 27 C33.66 27.99 34.32 28.98 35 30 C34.505 31.485 34.505 31.485 34 33 C30.93593618 30.12163701 28.36790127 27.20044293 25.875 23.8125 C19.28187187 15.22145426 10.86126785 8.64202814 2.01953125 2.49609375 C1.35308594 2.00238281 0.68664062 1.50867188 0 1 C0 0.67 0 0.34 0 0 Z " fill="#1F77A4" transform="translate(283,95)"/>
<path d="M0 0 C0 6.41539631 -1.84236304 9.48799428 -6.25 14.0625 C-6.72824219 14.57876953 -7.20648438 15.09503906 -7.69921875 15.62695312 C-11.39793547 19.56122497 -15.082581 23.08123673 -20 25.4375 C-23.33337459 27.1736326 -25.47004181 29.24681021 -28 32 C-29.32 31.34 -30.64 30.68 -32 30 C-31.49210937 29.69707031 -30.98421875 29.39414062 -30.4609375 29.08203125 C-22.62765968 24.6874144 -22.62765968 24.6874144 -17.0625 18.01171875 C-15.80669576 15.63400116 -14.6144341 14.82929386 -12.375 13.375 C-7.24992237 9.73300344 -3.72295588 5.01014808 0 0 Z " fill="#2280B2" transform="translate(314,250)"/>
<path d="M0 0 C27.06 0 54.12 0 82 0 C82 0.66 82 1.32 82 2 C82.63808594 2.10957031 83.27617187 2.21914062 83.93359375 2.33203125 C84.75988281 2.49058594 85.58617187 2.64914063 86.4375 2.8125 C87.26121094 2.96332031 88.08492188 3.11414063 88.93359375 3.26953125 C89.61550781 3.51058594 90.29742187 3.75164062 91 4 C91.495 5.485 91.495 5.485 92 7 C91.01773438 6.70996094 91.01773438 6.70996094 90.015625 6.4140625 C89.10296875 6.15367188 88.1903125 5.89328125 87.25 5.625 C86.36828125 5.36976562 85.4865625 5.11453125 84.578125 4.8515625 C73.96454134 2.32562228 63.60485798 1.6712338 52.734375 1.5859375 C51.20451873 1.56718054 49.67467231 1.54760395 48.14483643 1.5272522 C44.16003284 1.47640231 40.17519589 1.43652766 36.19024658 1.39910889 C32.10721912 1.35876983 28.02432477 1.30781556 23.94140625 1.2578125 C15.96102918 1.16161317 7.980585 1.07703341 0 1 C0 0.67 0 0.34 0 0 Z " fill="#CDEAF7" transform="translate(162,120)"/>
<path d="M0 0 C0.33 0 0.66 0 1 0 C1.01458252 1.11036621 1.02916504 2.22073242 1.04418945 3.36474609 C1.10207125 7.47624254 1.17930364 11.58718543 1.26245117 15.69824219 C1.2957484 17.47907542 1.32376531 19.26001541 1.34643555 21.04101562 C1.37989432 23.59811999 1.43220301 26.15424176 1.48828125 28.7109375 C1.49467117 29.50994476 1.5010611 30.30895203 1.50764465 31.13217163 C1.53954217 33.6129077 1.53954217 33.6129077 2 37 C5.35327639 39.23551759 5.90743657 39.17283528 9.6875 38.625 C10.49574219 38.51414063 11.30398437 38.40328125 12.13671875 38.2890625 C12.75160156 38.19367188 13.36648437 38.09828125 14 38 C14 37.34 14 36.68 14 36 C18.625 33.875 18.625 33.875 22 35 C19.84468513 36.49842817 17.67809965 37.97283911 15.5 39.4375 C14.89929688 39.85837891 14.29859375 40.27925781 13.6796875 40.71289062 C13.07382813 41.11572266 12.46796875 41.51855469 11.84375 41.93359375 C11.29912109 42.30540771 10.75449219 42.67722168 10.19335938 43.06030273 C8 44 8 44 0 45 C0 30.15 0 15.3 0 0 Z " fill="#418AB2" transform="translate(242,206)"/>
<path d="M0 0 C0 0.66 0 1.32 0 2 C1.3303125 2.12375 1.3303125 2.12375 2.6875 2.25 C6 3 6 3 8.375 5 C11.95704203 7.72917488 14.55134806 7.69839648 19 8 C19.33 8.99 19.66 9.98 20 11 C21.29355827 12.37195574 22.62298702 13.71182656 24 15 C18.59302489 13.75690105 13.52564599 12.51960761 8.75 9.625 C2.63375537 5.94630807 -4.22176506 4.09866299 -11 2 C-11 1.67 -11 1.34 -11 1 C-3.375 -1.125 -3.375 -1.125 0 0 Z " fill="#1876A9" transform="translate(266,82)"/>
<path d="M0 0 C0.99 0 1.98 0 3 0 C3 12.54 3 25.08 3 38 C2.34 37.67 1.68 37.34 1 37 C-0.09521999 32.46168218 -0.07385888 28.08599341 0 23.4375 C0.0719144 17.0660327 -0.24111157 10.82301327 -0.87890625 4.4765625 C-1 2 -1 2 0 0 Z " fill="#0F70A2" transform="translate(193,153)"/>
<path d="M0 0 C8.09327013 -0.04645584 16.18648402 -0.08193625 24.27985477 -0.10362434 C28.0384246 -0.11403649 31.79690281 -0.12814842 35.55541992 -0.15087891 C39.18642 -0.17269938 42.81733226 -0.18458793 46.44839287 -0.18975449 C47.82979145 -0.19343379 49.21118553 -0.20061838 50.59254646 -0.21146011 C63.9243132 -0.31188082 63.9243132 -0.31188082 70 2 C70 2.33 70 2.66 70 3 C68.71738281 2.93941406 67.43476563 2.87882812 66.11328125 2.81640625 C44.08615148 1.83412868 22.04307777 1.44821165 0 1 C0 0.67 0 0.34 0 0 Z " fill="#4E94B7" transform="translate(176,122)"/>
<path d="M0 0 C9.36256479 -0.04648213 18.72508942 -0.08194953 28.08774471 -0.10362434 C32.43589817 -0.11403078 36.78397228 -0.12813218 41.13208008 -0.15087891 C45.33366735 -0.17271984 49.53517862 -0.18459221 53.73681831 -0.18975449 C55.33426674 -0.19343014 56.93171133 -0.20060744 58.52912712 -0.21146011 C74.56570102 -0.31600948 74.56570102 -0.31600948 82 2 C82.99 2.99 82.99 2.99 84 4 C82.02043559 3.85966889 80.04134859 3.7125877 78.0625 3.5625 C76.96035156 3.48128906 75.85820312 3.40007812 74.72265625 3.31640625 C72 3 72 3 71 2 C68.79205589 1.87593185 66.58015514 1.82197722 64.36889648 1.79467773 C63.32992218 1.77982834 63.32992218 1.77982834 62.2699585 1.76467896 C59.97037221 1.7329797 57.67076523 1.70827349 55.37109375 1.68359375 C53.78067982 1.66303148 52.19027145 1.64203521 50.59986877 1.62062073 C46.40610237 1.56532491 42.21228605 1.5159489 38.01843262 1.46777344 C33.74206072 1.41761309 29.46576166 1.36189856 25.18945312 1.30664062 C16.79303027 1.19896726 8.39654662 1.09754284 0 1 C0 0.67 0 0.34 0 0 Z " fill="#ABDEEF" transform="translate(171,80)"/>
<path d="M0 0 C1.3837334 0.1224741 2.77176794 0.20031254 4.16015625 0.24609375 C5.3502832 0.29540039 5.3502832 0.29540039 6.56445312 0.34570312 C8.23358024 0.40703931 9.90286145 0.46431309 11.57226562 0.51757812 C12.36439453 0.55173828 13.15652344 0.58589844 13.97265625 0.62109375 C15.05945679 0.65867798 15.05945679 0.65867798 16.16821289 0.69702148 C18 1 18 1 20 3 C5.48 3 -9.04 3 -24 3 C-24 2.67 -24 2.34 -24 2 C-23.35933594 1.95101562 -22.71867188 1.90203125 -22.05859375 1.8515625 C-17.97310917 1.49842076 -14.05654084 1.14522823 -10.125 -0.0625 C-6.30357389 -1.20892783 -3.79241235 -1.26413745 0 0 Z " fill="#0C6FA1" transform="translate(221,149)"/>
<path d="M0 0 C14.85 0 29.7 0 45 0 C45 0.33 45 0.66 45 1 C34.44 1 23.88 1 13 1 C13.33 1.99 13.66 2.98 14 4 C12.25181409 4.22304441 10.50129677 4.4278645 8.75 4.625 C7.77546875 4.74101562 6.8009375 4.85703125 5.796875 4.9765625 C2.86570607 5.00112537 1.45471036 4.5312717 -1 3 C-0.67 2.01 -0.34 1.02 0 0 Z " fill="#3887B3" transform="translate(119,392)"/>
<path d="M0 0 C3.92300495 2.35380297 4.83857315 4.64464931 6 9 C6.66 9 7.32 9 8 9 C11.80343233 14.07124311 13 19.77583775 13 26 C13.66 26 14.32 26 15 26 C15 27.98 15 29.96 15 32 C12.83538882 29.31394187 11.46094705 26.93116263 10.3125 23.6875 C8.22964034 18.21488834 5.50481127 13.18512847 2.6418457 8.09057617 C0 3.31101564 0 3.31101564 0 0 Z " fill="#1A73A4" transform="translate(318,127)"/>
<path d="M0 0 C-1.98 0.33 -3.96 0.66 -6 1 C-6 1.66 -6 2.32 -6 3 C-22.66382959 4.18875727 -39.30485685 4.10413437 -56 4 C-56 3.67 -56 3.34 -56 3 C-55.27748047 2.98541748 -54.55496094 2.97083496 -53.81054688 2.95581055 C-39.57767397 2.63775124 -25.56366142 2.00373766 -11.46679688 -0.0715332 C-10.53931641 -0.20519287 -9.61183594 -0.33885254 -8.65625 -0.4765625 C-7.84994141 -0.60111816 -7.04363281 -0.72567383 -6.21289062 -0.85400391 C-3.90384129 -1.0063441 -2.19769855 -0.68505403 0 0 Z " fill="#519ABE" transform="translate(254,294)"/>
<path d="M0 0 C-6.5 3 -6.5 3 -11 3 C-11 3.66 -11 4.32 -11 5 C-18.05112439 7.21211746 -24.64657821 7.20177072 -32 7 C-28.74787266 5.17849598 -25.63420837 4.35080255 -22 3.5625 C-16.44154254 2.33913747 -10.95055712 0.95430785 -5.4609375 -0.546875 C-3 -1 -3 -1 0 0 Z " fill="#C9ECF7" transform="translate(269,287)"/>
<path d="M0 0 C0.33 0 0.66 0 1 0 C0.36062395 9.91032883 -3.04286281 17.52489448 -8 26 C-9.06897609 28.31080788 -10.03744179 30.64173238 -11 33 C-11.66 33 -12.32 33 -13 33 C-13.33 33.66 -13.66 34.32 -14 35 C-14 33.35 -14 31.7 -14 30 C-13.01 30 -12.02 30 -11 30 C-11 28.35 -11 26.7 -11 25 C-10.34 25 -9.68 25 -9 25 C-9 23.68 -9 22.36 -9 21 C-8.34 21 -7.68 21 -7 21 C-7 20.01 -7 19.02 -7 18 C-6.34 17.67 -5.68 17.34 -5 17 C-4.53476937 15.10466658 -4.53476937 15.10466658 -4.375 12.9375 C-4.25125 11.638125 -4.1275 10.33875 -4 9 C-3.34 9 -2.68 9 -2 9 C-2 7.02 -2 5.04 -2 3 C-1.34 3 -0.68 3 0 3 C0 2.01 0 1.02 0 0 Z " fill="#C0E5F1" transform="translate(332,209)"/>
<path d="M0 0 C0.66 0.33 1.32 0.66 2 1 C-2.98234194 6.07460753 -8.10421856 9.89585928 -14.4375 13.0625 C-15.05254395 13.37324463 -15.66758789 13.68398926 -16.30126953 14.00415039 C-17.83537809 14.74051398 -19.41556974 15.37927367 -21 16 C-21.66 15.67 -22.32 15.34 -23 15 C-22 12 -22 12 -19.125 10.3125 C-16 9 -16 9 -13 9 C-13 8.34 -13 7.68 -13 7 C-11.783125 6.5875 -10.56625 6.175 -9.3125 5.75 C-5.63264526 4.3839438 -2.93081636 2.65605232 0 0 Z " fill="#CBECF5" transform="translate(295,269)"/>
<path d="M0 0 C0.33 0.99 0.66 1.98 1 3 C1.66 3 2.32 3 3 3 C4.21693876 5.43387753 4.31959896 7.41838846 4.5625 10.125 C4.64628906 11.03507813 4.73007812 11.94515625 4.81640625 12.8828125 C4.87699219 13.58148438 4.93757813 14.28015625 5 15 C5.33 15 5.66 15 6 15 C5.67 24.57 5.34 34.14 5 44 C4.67 44 4.34 44 4 44 C3.97812622 42.87525269 3.97812622 42.87525269 3.95581055 41.7277832 C3.88029849 38.25556277 3.78398664 34.7841985 3.6875 31.3125 C3.66494141 30.13365234 3.64238281 28.95480469 3.61914062 27.74023438 C3.39934383 20.44697699 2.49611306 13.79069513 0.63208008 6.73120117 C0 4 0 4 0 0 Z " fill="#488DB4" transform="translate(331,156)"/>
<path d="M0 0 C0.66 0 1.32 0 2 0 C2.33 1.32 2.66 2.64 3 4 C3.66 4 4.32 4 5 4 C5.13277344 4.78246094 5.26554687 5.56492188 5.40234375 6.37109375 C5.57894531 7.38300781 5.75554687 8.39492187 5.9375 9.4375 C6.11152344 10.44683594 6.28554688 11.45617187 6.46484375 12.49609375 C6.74751097 14.9287438 6.74751097 14.9287438 8 16 C8.08737645 17.85369611 8.10698153 19.71067541 8.09765625 21.56640625 C8.09443359 22.69111328 8.09121094 23.81582031 8.08789062 24.97460938 C8.07951172 26.15861328 8.07113281 27.34261719 8.0625 28.5625 C8.05798828 29.75037109 8.05347656 30.93824219 8.04882812 32.16210938 C8.03699675 35.10812226 8.02051287 38.05403681 8 41 C7.67 41 7.34 41 7 41 C6.99742187 39.79988281 6.99484375 38.59976563 6.9921875 37.36328125 C6.7552006 24.14021534 4.1598438 12.52319932 0 0 Z " fill="#C7EAF5" transform="translate(285,158)"/>
<path d="M0 0 C4.29 0 8.58 0 13 0 C13 0.66 13 1.32 13 2 C13.95712891 2.16435547 13.95712891 2.16435547 14.93359375 2.33203125 C15.75988281 2.49058594 16.58617187 2.64914063 17.4375 2.8125 C18.67306641 3.03873047 18.67306641 3.03873047 19.93359375 3.26953125 C20.61550781 3.51058594 21.29742187 3.75164062 22 4 C22.33 4.99 22.66 5.98 23 7 C22.34515625 6.80664062 21.6903125 6.61328125 21.015625 6.4140625 C14.06501902 4.43098 7.14714232 3.06022181 0 2 C0 1.34 0 0.68 0 0 Z " fill="#D2F3FA" transform="translate(231,120)"/>
<path d="M0 0 C0.33 0.66 0.66 1.32 1 2 C0.525625 2.5775 0.05125 3.155 -0.4375 3.75 C-1.9484867 5.92582084 -2.54036151 7.42602448 -3 10 C-3.66 10 -4.32 10 -5 10 C-5 10.66 -5 11.32 -5 12 C-8.47307692 14.10865385 -8.47307692 14.10865385 -11.140625 13.55859375 C-12.06101562 13.28208984 -12.06101562 13.28208984 -13 13 C-8.66666667 8.66666667 -4.33333333 4.33333333 0 0 Z " fill="#C2E9F1" transform="translate(280,225)"/>
<path d="M0 0 C0.99 0.495 0.99 0.495 2 1 C5.03888226 10.80039528 7.19676789 21.72266194 7 32 C4.37548383 29.37548383 4.4167132 27.5122172 3.875 23.875 C3.70742188 22.77929688 3.53984375 21.68359375 3.3671875 20.5546875 C3.24601562 19.71164063 3.12484375 18.86859375 3 18 C2.67 18 2.34 18 2 18 C1.93941406 17.28714844 1.87882812 16.57429688 1.81640625 15.83984375 C1.35191899 10.53039712 0.81924749 5.266591 0 0 Z " fill="#107AB4" transform="translate(333,154)"/>
<path d="M0 0 C0.66 0 1.32 0 2 0 C2.29132813 0.54527344 2.58265625 1.09054688 2.8828125 1.65234375 C5.61509528 6.67871301 8.55772964 11.35515658 11.9609375 15.95703125 C13 18 13 18 12.6640625 20.26171875 C12.44492187 20.83535156 12.22578125 21.40898437 12 22 C11.773125 21.2575 11.54625 20.515 11.3125 19.75 C9.74390131 16.46341227 7.91996742 15.11697638 5 13 C2.53698577 10.53698577 2.23233479 8.72639964 1.375 5.375 C1.11460937 4.37210938 0.85421875 3.36921875 0.5859375 2.3359375 C0.39257812 1.56507813 0.19921875 0.79421875 0 0 Z " fill="#3F8CB5" transform="translate(274,143)"/>
<path d="M0 0 C0.33 0.66 0.66 1.32 1 2 C1.66 2.33 2.32 2.66 3 3 C-3.37436782 7.38237788 -10.49617839 8.19601911 -18 9 C-18 8.34 -18 7.68 -18 7 C-17.18208984 6.74476563 -17.18208984 6.74476563 -16.34765625 6.484375 C-10.71615022 4.67459186 -5.36060431 2.49654622 0 0 Z " fill="#3B8DB9" transform="translate(276,283)"/>
<path d="M0 0 C0.66 0.33 1.32 0.66 2 1 C0.02 1.99 0.02 1.99 -2 3 C-1.896875 3.763125 -1.79375 4.52625 -1.6875 5.3125 C-1.790625 6.199375 -1.89375 7.08625 -2 8 C-4 9.375 -4 9.375 -7 11 C-9.73902167 13.25298455 -12.37157641 15.61941784 -15 18 C-16.32 17.34 -17.64 16.68 -19 16 C-18.49210937 15.69707031 -17.98421875 15.39414062 -17.4609375 15.08203125 C-8.77195326 9.97126249 -8.77195326 9.97126249 -3 2 C-2.01 1.34 -1.02 0.68 0 0 Z " fill="#2381B2" transform="translate(301,264)"/>
<path d="M0 0 C4.84166786 0.45038771 7.49668287 1.59972161 11 5 C11 5.66 11 6.32 11 7 C13.475 7.99 13.475 7.99 16 9 C15.67 10.32 15.34 11.64 15 13 C13.06096151 11.39766277 11.12373796 9.79321522 9.1875 8.1875 C8.64029297 7.73568359 8.09308594 7.28386719 7.52929688 6.81835938 C4.90930608 4.64297307 2.34318968 2.47473717 0 0 Z " fill="#C7E8F3" transform="translate(258,130)"/>
<path d="M0 0 C0.66 0.33 1.32 0.66 2 1 C0.02 3.31 -1.96 5.62 -4 8 C-5.32 7.67 -6.64 7.34 -8 7 C-8 7.66 -8 8.32 -8 9 C-13.45769231 12.10096154 -13.45769231 12.10096154 -16.203125 11.58984375 C-16.79609375 11.39519531 -17.3890625 11.20054687 -18 11 C-17.18208984 10.56300781 -17.18208984 10.56300781 -16.34765625 10.1171875 C-10.68165565 7.03720769 -5.31200899 3.65436079 0 0 Z " fill="#B1DDEC" transform="translate(265,239)"/>
<path d="M0 0 C0 0.66 0 1.32 0 2 C-0.9075 2.268125 -1.815 2.53625 -2.75 2.8125 C-5.95261416 3.76422726 -5.95261416 3.76422726 -7.875 5.625 C-11.18666129 7.76783966 -14.1108527 7.19445737 -18 7 C-18 6.34 -18 5.68 -18 5 C-16.02 4.67 -14.04 4.34 -12 4 C-12 3.34 -12 2.68 -12 2 C-10.56342755 1.66269158 -9.12569907 1.33030409 -7.6875 1 C-6.88699219 0.814375 -6.08648437 0.62875 -5.26171875 0.4375 C-3 0 -3 0 0 0 Z " fill="#1576AC" transform="translate(266,290)"/>
<path d="M0 0 C5.75 0.875 5.75 0.875 8 2 C8 2.66 8 3.32 8 4 C8.721875 4.2475 9.44375 4.495 10.1875 4.75 C13.24713266 6.10983674 15.4673738 7.82917754 18 10 C12.92387682 10.61528766 10.17017994 8.61658349 6 6 C6 5.01 6 4.02 6 3 C4.02 2.34 2.04 1.68 0 1 C0 0.67 0 0.34 0 0 Z " fill="#428FB8" transform="translate(246,125)"/>
<path d="M0 0 C4.30558623 0.51911323 6.53389697 1.87925031 9.75 4.75 C10.52859375 5.42546875 11.3071875 6.1009375 12.109375 6.796875 C14.21578116 9.25144747 14.66676776 10.82318599 15 14 C8.54404145 8.55958549 8.54404145 8.55958549 5.8125 5.75 C3.97597937 3.97680767 2.33391728 3.00025026 0 2 C0 1.34 0 0.68 0 0 Z " fill="#1A75AA" transform="translate(261,135)"/>
<path d="M0 0 C2.20904631 0.08775663 4.41728593 0.19594367 6.625 0.3125 C7.85476562 0.37050781 9.08453125 0.42851563 10.3515625 0.48828125 C14.1423425 1.01996453 16.70029671 2.10647796 20 4 C20 4.66 20 5.32 20 6 C13.125 5.125 13.125 5.125 12 4 C10.9275 3.855625 9.855 3.71125 8.75 3.5625 C5.47766726 3.07165009 2.98738612 2.35790278 0 1 C0 0.67 0 0.34 0 0 Z " fill="#1679A8" transform="translate(232,124)"/>
<path d="M0 0 C4.13606764 0.60824524 7.46058648 1.74764594 11 4 C11.875 6.6875 11.875 6.6875 12 9 C7.18966896 6.45335415 3.67557852 4.00972202 0 0 Z " fill="#3287B4" transform="translate(283,95)"/>
<path d="M0 0 C0 0.33 0 0.66 0 1 C-6.93 1 -13.86 1 -21 1 C-21 0.34 -21 -0.32 -21 -1 C-13.70345948 -2.43069422 -7.26366109 -1.33979115 0 0 Z " fill="#ECFEFE" transform="translate(154,389)"/>
<path d="M0 0 C6.86087016 1.55928867 12.79044974 4.75757474 19 8 C15.98968256 8.93423645 15.13349732 9.04449911 12 8 C12 7.34 12 6.68 12 6 C9.69 5.67 7.38 5.34 5 5 C5 4.01 5 3.02 5 2 C3.35 2 1.7 2 0 2 C0 1.34 0 0.68 0 0 Z " fill="#A5D5E7" transform="translate(264,87)"/>
<path d="M0 0 C-1.32 0.33 -2.64 0.66 -4 1 C-4 1.99 -4 2.98 -4 4 C-8.29 4 -12.58 4 -17 4 C-11.51937878 1.25968939 -6.18879033 -0.3867994 0 0 Z " fill="#DDF6FB" transform="translate(254,290)"/>
<path d="M0 0 C0.66 0.33 1.32 0.66 2 1 C-7.67557797 10.05204072 -7.67557797 10.05204072 -13 12 C-13.66 11.67 -14.32 11.34 -15 11 C-14.34 10.360625 -13.68 9.72125 -13 9.0625 C-10.88397569 7.35917681 -10.88397569 7.35917681 -11 6 C-9.6696875 5.62875 -9.6696875 5.62875 -8.3125 5.25 C-4.89572865 3.96065232 -2.7202252 2.40019871 0 0 Z " fill="#95CCE1" transform="translate(295,269)"/>
<path d="M0 0 C0.33 0 0.66 0 1 0 C0.5464821 7.02952752 -1.12059087 12.5849443 -4 19 C-5.6415049 15.7169902 -4.51888624 12.57454967 -4 9 C-3.34 9 -2.68 9 -2 9 C-2 7.02 -2 5.04 -2 3 C-1.34 3 -0.68 3 0 3 C0 2.01 0 1.02 0 0 Z " fill="#ADD7E9" transform="translate(332,209)"/>
<path d="M0 0 C5.28 0 10.56 0 16 0 C15.67 0.66 15.34 1.32 15 2 C9.66174407 3.39356576 5.08931047 3.21841738 0 1 C0 0.67 0 0.34 0 0 Z " fill="#0E74AA" transform="translate(198,298)"/>
<path d="M0 0 C1.125 1.75 1.125 1.75 2 4 C1.3125 6 1.3125 6 0 8 C-0.7115625 9.11375 -0.7115625 9.11375 -1.4375 10.25 C-1.953125 10.8275 -2.46875 11.405 -3 12 C-3.99 12 -4.98 12 -6 12 C-4.78273716 8.5354827 -3.56145682 6.56145682 -1 4 C-0.28552357 1.89667109 -0.28552357 1.89667109 0 0 Z " fill="#0E72A6" transform="translate(326,232)"/>
<path d="M0 0 C0 2.92828926 -0.13970066 5.20402714 -1 8 C-3.15101064 9.45713624 -4.40286494 10 -7 10 C-5.33248852 6.05860922 -2.77289351 3.2107188 0 0 Z " fill="#4896C0" transform="translate(314,250)"/>
<path d="M0 0 C6.4923153 -0.24397009 12.80005314 -0.16463662 19 2 C19.66 2.66 20.32 3.32 21 4 C19.02043559 3.85966889 17.04134859 3.7125877 15.0625 3.5625 C13.96035156 3.48128906 12.85820312 3.40007812 11.72265625 3.31640625 C9 3 9 3 8 2 C6.65252916 1.76924918 5.29622435 1.58846937 3.9375 1.4375 C2.638125 1.293125 1.33875 1.14875 0 1 C0 0.67 0 0.34 0 0 Z " fill="#8FC9E0" transform="translate(234,80)"/>
<path d="M0 0 C0 0.66 0 1.32 0 2 C0.99 2.33 1.98 2.66 3 3 C-2.48946087 4.12029814 -5.83430559 3.79217969 -11 2 C-11 1.67 -11 1.34 -11 1 C-3.375 -1.125 -3.375 -1.125 0 0 Z " fill="#2583B7" transform="translate(266,82)"/>
<path d="M0 0 C0.33 0 0.66 0 1 0 C1.3125 3.25 1.3125 3.25 1 7 C-1.5 9.4375 -1.5 9.4375 -4 11 C-3.56534471 6.47958496 -3.21201178 3.3458456 0 0 Z " fill="#2880B0" transform="translate(280,218)"/>
<path d="M0 0 C-1.98 0.33 -3.96 0.66 -6 1 C-6 1.66 -6 2.32 -6 3 C-9.96 3 -13.92 3 -18 3 C-18 2.67 -18 2.34 -18 2 C-15.36 2 -12.72 2 -10 2 C-10 1.34 -10 0.68 -10 0 C-6.33694766 -0.74926071 -3.57644848 -1.2380014 0 0 Z " fill="#408CB5" transform="translate(254,294)"/>
<path d="M0 0 C0.99 0.33 1.98 0.66 3 1 C2.34 5.62 1.68 10.24 1 15 C0.67 15 0.34 15 0 15 C-0.19448477 12.87562788 -0.38038289 10.75046809 -0.5625 8.625 C-0.66691406 7.44164062 -0.77132812 6.25828125 -0.87890625 5.0390625 C-1 2 -1 2 0 0 Z " fill="#0D72AB" transform="translate(193,153)"/>
<path d="M0 0 C0 0.66 0 1.32 0 2 C-4.46334184 3.72293135 -8.10201231 4.22240791 -12.875 4.125 C-14.02742187 4.10695312 -15.17984375 4.08890625 -16.3671875 4.0703125 C-17.23601562 4.04710937 -18.10484375 4.02390625 -19 4 C-19 3.67 -19 3.34 -19 3 C-18.35933594 2.95101562 -17.71867188 2.90203125 -17.05859375 2.8515625 C-11.43294687 2.36529198 -5.47214133 0 0 0 Z " fill="#0E74AB" transform="translate(216,148)"/>
<path d="M0 0 C2.475 0.495 2.475 0.495 5 1 C5 1.99 5 2.98 5 4 C5.66 4 6.32 4 7 4 C7.99 5.485 7.99 5.485 9 7 C8.67 7.99 8.34 8.98 8 10 C4.71211176 6.88983545 2.16264012 3.98381075 0 0 Z " fill="#418CB4" transform="translate(309,118)"/>
<path d="M0 0 C0.33 0 0.66 0 1 0 C0.67 2.97 0.34 5.94 0 9 C-0.99 9.33 -1.98 9.66 -3 10 C-3 11.65 -3 13.3 -3 15 C-3.99 15 -4.98 15 -6 15 C-5.10551135 11.97249994 -4.35598216 9.46989645 -2.4375 6.9375 C-0.73883716 4.64799792 -0.38820183 2.79505317 0 0 Z " fill="#3E89B1" transform="translate(329,222)"/>
<path d="M0 0 C0.33 0 0.66 0 1 0 C1.02708567 1.60407328 1.04643483 3.2082785 1.0625 4.8125 C1.07410156 5.70582031 1.08570313 6.59914062 1.09765625 7.51953125 C1 10 1 10 0 13 C-0.66 13 -1.32 13 -2 13 C-2.19294408 8.17639811 -1.75747614 4.50353262 0 0 Z " fill="#E3F9FE" transform="translate(332,199)"/>
<path d="M0 0 C-4.455 2.97 -4.455 2.97 -9 6 C-9.66 5.67 -10.32 5.34 -11 5 C-11 4.34 -11 3.68 -11 3 C-10.01 3 -9.02 3 -8 3 C-8 2.34 -8 1.68 -8 1 C-3.375 -1.125 -3.375 -1.125 0 0 Z " fill="#2884B2" transform="translate(264,241)"/>
<path d="M0 0 C0.33 0 0.66 0 1 0 C1.56638908 4.81430721 -0.17438373 7.20307814 -3 11 C-3.93423645 7.98968256 -4.04449911 7.13349732 -3 4 C-2.34 4 -1.68 4 -1 4 C-0.67 2.68 -0.34 1.36 0 0 Z " fill="#DFF8FC" transform="translate(317,240)"/>
<path d="M0 0 C0 0.66 0 1.32 0 2 C-3.22791555 4.1519437 -4.28400809 4.20086443 -8 4 C-8 3.34 -8 2.68 -8 2 C-4.77208445 -0.1519437 -3.71599191 -0.20086443 0 0 Z " fill="#106FA3" transform="translate(285,281)"/>
<path d="M0 0 C0.66 0.33 1.32 0.66 2 1 C0.02 1.99 0.02 1.99 -2 3 C-2 4.65 -2 6.3 -2 8 C-3.98 8.99 -3.98 8.99 -6 10 C-5.00475043 5.35550201 -4.03925611 2.69283741 0 0 Z " fill="#4D9FC7" transform="translate(301,264)"/>
<path d="M0 0 C0.33 0.66 0.66 1.32 1 2 C-1.84936103 5.00765886 -4.23511958 7.27845212 -8 9 C-7.04663979 7.68388323 -6.08714226 6.37221039 -5.125 5.0625 C-4.59132813 4.33160156 -4.05765625 3.60070312 -3.5078125 2.84765625 C-2 1 -2 1 0 0 Z " fill="#A6D6E5" transform="translate(280,225)"/>
<path d="M0 0 C0.66 0 1.32 0 2 0 C6 6.75 6 6.75 6 9 C5.34 9 4.68 9 4 9 C3.67 9.66 3.34 10.32 3 11 C2.01 7.37 1.02 3.74 0 0 Z " fill="#4F9BC2" transform="translate(274,143)"/>
<path d="M0 0 C0 3 0 3 -1.3125 4.6875 C-3 6 -3 6 -6 6 C-5.8125 4.125 -5.8125 4.125 -5 2 C-2.4375 0.75 -2.4375 0.75 0 0 Z " fill="#0F74AD" transform="translate(304,265)"/>
<path d="M0 0 C2.31 0.66 4.62 1.32 7 2 C7.33 3.65 7.66 5.3 8 7 C6.66382648 6.02471263 5.3311249 5.04466681 4 4.0625 C3.2575 3.51722656 2.515 2.97195312 1.75 2.41015625 C1.1725 1.94480469 0.595 1.47945312 0 1 C0 0.67 0 0.34 0 0 Z " fill="#A1D3EA" transform="translate(266,136)"/>
<path d="M0 0 C3.0916909 2.52956528 3.90931332 5.22454612 5 9 C4.34 9 3.68 9 3 9 C3 8.34 3 7.68 3 7 C2.34 7 1.68 7 1 7 C0.67 4.69 0.34 2.38 0 0 Z " fill="#B3DEEE" transform="translate(320,134)"/>
<path d="M0 0 C5.75 0.875 5.75 0.875 8 2 C8 2.66 8 3.32 8 4 C5.69 3.67 3.38 3.34 1 3 C0.67 2.01 0.34 1.02 0 0 Z " fill="#1370A0" transform="translate(244,126)"/>
<path d="M0 0 C4.75 0.875 4.75 0.875 7 2 C7.625 4.0625 7.625 4.0625 8 6 C4.63408134 4.55746343 2.48952921 2.66735273 0 0 Z " fill="#4E93B9" transform="translate(283,95)"/>
<path d="M0 0 C0.75 1.5625 0.75 1.5625 1 4 C-0.13084437 6.50286409 -1.52139516 8.67007722 -3 11 C-3.75 9.4375 -3.75 9.4375 -4 7 C-2.86915563 4.49713591 -1.47860484 2.32992278 0 0 Z " fill="#107DBA" transform="translate(331,225)"/>
<path d="M0 0 C1.98 0 3.96 0 6 0 C6.33 0.99 6.66 1.98 7 3 C4.69 2.67 2.38 2.34 0 2 C0 1.34 0 0.68 0 0 Z " fill="#1570A0" transform="translate(277,91)"/>
<path d="M0 0 C3.3 0.99 6.6 1.98 10 3 C10 3.33 10 3.66 10 4 C3.375 4.25 3.375 4.25 0 2 C0 1.34 0 0.68 0 0 Z " fill="#1474A8" transform="translate(250,79)"/>
<path d="M0 0 C0.33 0.66 0.66 1.32 1 2 C-0.28062485 3.7074998 -1.61767557 5.37373596 -3 7 C-3.66 7 -4.32 7 -5 7 C-5 6.34 -5 5.68 -5 5 C-4.34 5 -3.68 5 -3 5 C-2.87625 4.360625 -2.7525 3.72125 -2.625 3.0625 C-2.41875 2.381875 -2.2125 1.70125 -2 1 C-1.34 0.67 -0.68 0.34 0 0 Z " fill="#DCF5FB" transform="translate(286,218)"/>
</svg>
